<svg width="5974" height="2651" xmlns="http://www.w3.org/2000/svg" xmlns:xlink="http://www.w3.org/1999/xlink" xml:space="preserve" overflow="hidden"><defs><clipPath id="clip0"><rect x="-1318" y="81" width="5974" height="2651"/></clipPath></defs><g clip-path="url(#clip0)" transform="translate(1318 -81)"><path d="M0 4327.83 199.133 4366.33C398.267 4405.49 796.533 4482.49 1194.8 4432.04 1593.07 4380.93 1991.33 4201.71 2389.6 4088.87 2787.87 3976.03 3186.13 3929.56 3584.4 3962.75 3982.67 3995.94 4380.93 4108.78 4779.2 4261.45 5177.47 4414.12 5575.73 4606.62 5774.87 4702.87L5974 4799.11 5974 5980.64 5774.87 5980.64C5575.73 5980.64 5177.47 5980.64 4779.2 5980.64 4380.93 5980.64 3982.67 5980.64 3584.4 5980.64 3186.13 5980.64 2787.87 5980.64 2389.6 5980.64 1991.33 5980.64 1593.07 5980.64 1194.8 5980.64 796.533 5980.64 398.267 5980.64 199.133 5980.64L0 5980.64Z" fill="#275b2e" transform="matrix(1 0 0 1.29249 -1318 -4997.94)"/></g></svg>